<svg width="7" height="13" viewBox="0 0 7 13" fill="none" xmlns="http://www.w3.org/2000/svg">
<path d="M0 11.5367V12.8625C0 12.9774 0.113235 13.0409 0.189706 12.9706L6.8191 6.93137C6.87542 6.88028 6.921 6.81486 6.95235 6.7401C6.9837 6.66535 7 6.58322 7 6.5C7 6.41678 6.9837 6.33465 6.95235 6.2599C6.921 6.18514 6.87542 6.11972 6.8191 6.06863L0.189706 0.0294361C0.111765 -0.0408869 0 0.0225754 0 0.137493L0 1.46334C0 1.54738 0.033823 1.628 0.0897055 1.67945L5.38381 6.49914L0.0897055 11.3205C0.033823 11.372 0 11.4526 0 11.5367Z" fill="white"/>
</svg>
