<svg width="24" height="24" viewBox="0 0 24 24" fill="none" xmlns="http://www.w3.org/2000/svg">
<path d="M2 13.5C2.82843 13.5 3.5 12.8284 3.5 12C3.5 11.1716 2.82843 10.5 2 10.5L2 13.5ZM0.93924 10.9393C0.353453 11.5251 0.353453 12.4749 0.93924 13.0607L10.4852 22.6066C11.071 23.1924 12.0207 23.1924 12.6065 22.6066C13.1923 22.0208 13.1923 21.0711 12.6065 20.4853L4.12122 12L12.6065 3.51472C13.1923 2.92893 13.1923 1.97918 12.6065 1.3934C12.0207 0.807612 11.071 0.807612 10.4852 1.3934L0.93924 10.9393ZM2 10.5H1.9999L1.9999 13.5H2L2 10.5Z" fill="white"/>
<path d="M12 13.5C12.8284 13.5 13.5 12.8284 13.5 12C13.5 11.1716 12.8284 10.5 12 10.5V13.5ZM10.9392 10.9393C10.3535 11.5251 10.3535 12.4749 10.9392 13.0607L20.4852 22.6066C21.071 23.1924 22.0207 23.1924 22.6065 22.6066C23.1923 22.0208 23.1923 21.0711 22.6065 20.4853L14.1212 12L22.6065 3.51472C23.1923 2.92893 23.1923 1.97918 22.6065 1.3934C22.0207 0.807612 21.071 0.807612 20.4852 1.3934L10.9392 10.9393ZM12 10.5H11.9999V13.5H12V10.5Z" fill="white"/>
</svg>
