<svg width="24" height="24" viewBox="0 0 24 24" fill="none" xmlns="http://www.w3.org/2000/svg">
<path d="M22 10.5C21.1716 10.5 20.5 11.1716 20.5 12C20.5 12.8284 21.1716 13.5 22 13.5V10.5ZM23.0608 13.0607C23.6465 12.4749 23.6465 11.5251 23.0608 10.9393L13.5148 1.3934C12.929 0.807612 11.9793 0.807612 11.3935 1.3934C10.8077 1.97918 10.8077 2.92893 11.3935 3.51472L19.8788 12L11.3935 20.4853C10.8077 21.0711 10.8077 22.0208 11.3935 22.6066C11.9793 23.1924 12.929 23.1924 13.5148 22.6066L23.0608 13.0607ZM22 13.5H22.0001V10.5H22V13.5Z" fill="white"/>
<path d="M12 10.5C11.1716 10.5 10.5 11.1716 10.5 12C10.5 12.8284 11.1716 13.5 12 13.5V10.5ZM13.0608 13.0607C13.6465 12.4749 13.6465 11.5251 13.0608 10.9393L3.51482 1.3934C2.92903 0.807612 1.97928 0.807612 1.3935 1.3934C0.807712 1.97918 0.807712 2.92893 1.3935 3.51472L9.87878 12L1.3935 20.4853C0.807712 21.0711 0.807712 22.0208 1.3935 22.6066C1.97928 23.1924 2.92903 23.1924 3.51482 22.6066L13.0608 13.0607ZM12 13.5H12.0001V10.5H12V13.5Z" fill="white"/>
</svg>
