<svg width="25" height="25" viewBox="0 0 25 25" fill="none" xmlns="http://www.w3.org/2000/svg">
<g clip-path="url(#clip0_105_5021)">
<path d="M13.5417 3.125C13.8072 3.12529 14.0625 3.22696 14.2556 3.40922C14.4487 3.59148 14.5648 3.84058 14.5804 4.10562C14.5959 4.37066 14.5097 4.63164 14.3393 4.83524C14.1689 5.03884 13.9272 5.16968 13.6635 5.20104L13.5417 5.20833H5.20833V19.7917H19.7917V11.4583C19.792 11.1928 19.8936 10.9375 20.0759 10.7444C20.2581 10.5513 20.5072 10.4352 20.7723 10.4196C21.0373 10.4041 21.2983 10.4903 21.5019 10.6607C21.7055 10.8311 21.8363 11.0728 21.8677 11.3365L21.875 11.4583V19.7917C21.8752 20.3173 21.6767 20.8235 21.3193 21.2089C20.9619 21.5943 20.472 21.8304 19.9479 21.8698L19.7917 21.875H5.20833C4.68273 21.8752 4.17649 21.6767 3.7911 21.3193C3.4057 20.9619 3.16963 20.472 3.13021 19.9479L3.125 19.7917V5.20833C3.12483 4.68273 3.32334 4.17649 3.68073 3.7911C4.03811 3.4057 4.52796 3.16963 5.05208 3.13021L5.20833 3.125H13.5417ZM20.0448 3.48229C20.2322 3.29547 20.4838 3.18701 20.7483 3.17893C21.0128 3.17085 21.2705 3.26377 21.469 3.4388C21.6675 3.61384 21.792 3.85787 21.8171 4.12133C21.8422 4.38479 21.7661 4.64793 21.6042 4.85729L21.5177 4.95625L11.2052 15.2677C11.0178 15.4545 10.7662 15.563 10.5017 15.5711C10.2372 15.5791 9.97947 15.4862 9.78096 15.3112C9.58245 15.1362 9.45801 14.8921 9.43292 14.6287C9.40782 14.3652 9.48395 14.1021 9.64583 13.8927L9.73229 13.7948L20.0448 3.48229Z" fill="white"/>
</g>
<defs>
<clipPath id="clip0_105_5021">
<rect width="25" height="25" fill="white"/>
</clipPath>
</defs>
</svg>
