<svg width="15" height="15" viewBox="0 0 15 15" fill="none" xmlns="http://www.w3.org/2000/svg">
<g clip-path="url(#clip0_105_4972)">
<path d="M10.7812 1.1567C10.1402 1.1629 9.5095 1.31916 8.9397 1.61296C8.3699 1.90676 7.87683 2.32993 7.5 2.84858C7.12317 2.32993 6.6301 1.90676 6.0603 1.61296C5.4905 1.31916 4.8598 1.1629 4.21875 1.1567C3.05735 1.20308 1.96157 1.70744 1.17101 2.55949C0.380443 3.41154 -0.0405807 4.54196 -2.31387e-06 5.70358C-2.31387e-06 8.54858 2.92125 11.5942 5.375 13.6486C5.97083 14.1496 6.72434 14.4243 7.50281 14.4243C8.28128 14.4243 9.03479 14.1496 9.63062 13.6486C12.0819 11.5942 15.0056 8.54858 15.0056 5.70358C15.0462 4.54103 14.6244 3.40978 13.8326 2.55757C13.0408 1.70536 11.9436 1.20163 10.7812 1.1567ZM8.42312 12.2117C8.16464 12.4293 7.83759 12.5487 7.49969 12.5487C7.16178 12.5487 6.83473 12.4293 6.57625 12.2117C3.58875 9.7067 1.875 7.33483 1.875 5.70358C1.83515 5.03933 2.05892 4.38619 2.49774 3.88594C2.93655 3.38569 3.55498 3.07873 4.21875 3.0317C4.88252 3.07873 5.50095 3.38569 5.93976 3.88594C6.37857 4.38619 6.60235 5.03933 6.5625 5.70358C6.5625 5.95222 6.66127 6.19067 6.83709 6.36649C7.0129 6.5423 7.25136 6.64108 7.5 6.64108C7.74864 6.64108 7.9871 6.5423 8.16291 6.36649C8.33873 6.19067 8.4375 5.95222 8.4375 5.70358C8.39765 5.03933 8.62142 4.38619 9.06024 3.88594C9.49905 3.38569 10.1175 3.07873 10.7812 3.0317C11.445 3.07873 12.0634 3.38569 12.5023 3.88594C12.9411 4.38619 13.1648 5.03933 13.125 5.70358C13.125 7.33483 11.4112 9.7067 8.42312 12.2117Z" fill="#151215"/>
</g>
<defs>
<clipPath id="clip0_105_4972">
<rect width="15" height="15" fill="white"/>
</clipPath>
</defs>
</svg>
