<svg width="27" height="27" viewBox="0 0 27 27" fill="none" xmlns="http://www.w3.org/2000/svg">
<path d="M10.945 20.6C11.33 20.6 11.6556 20.4669 11.9218 20.2007C12.188 19.9345 12.3207 19.6093 12.32 19.225C12.32 18.84 12.1873 18.5144 11.9218 18.2482C11.6563 17.982 11.3307 17.8493 10.945 17.85C10.56 17.85 10.2348 17.9831 9.9693 18.2493C9.70383 18.5155 9.57073 18.8407 9.57 19.225C9.57 19.61 9.7031 19.9356 9.9693 20.2018C10.2355 20.468 10.5607 20.6007 10.945 20.6ZM9.955 16.365H11.99C11.99 15.76 12.0589 15.2833 12.1968 14.935C12.3347 14.5867 12.7241 14.11 13.365 13.505C13.8417 13.0283 14.2175 12.5744 14.4925 12.1432C14.7675 11.712 14.905 11.1943 14.905 10.59C14.905 9.56333 14.5292 8.775 13.7775 8.225C13.0258 7.675 12.1367 7.4 11.11 7.4C10.065 7.4 9.21727 7.675 8.5668 8.225C7.91633 8.775 7.4624 9.435 7.205 10.205L9.02 10.92C9.11167 10.59 9.3181 10.2325 9.6393 9.8475C9.9605 9.4625 10.4507 9.27 11.11 9.27C11.6967 9.27 12.1367 9.4306 12.43 9.7518C12.7233 10.073 12.87 10.4257 12.87 10.81C12.87 11.1767 12.76 11.5206 12.54 11.8418C12.32 12.163 12.045 12.4607 11.715 12.735C10.9083 13.45 10.4133 13.9908 10.23 14.3575C10.0467 14.7242 9.955 15.3933 9.955 16.365ZM11 25C9.47833 25 8.04833 24.7114 6.71 24.1343C5.37167 23.5572 4.2075 22.7732 3.2175 21.7825C2.2275 20.7925 1.44393 19.6283 0.8668 18.29C0.289667 16.9517 0.000733333 15.5217 0 14C0 12.4783 0.288933 11.0483 0.8668 9.71C1.44467 8.37167 2.22823 7.2075 3.2175 6.2175C4.2075 5.2275 5.37167 4.44393 6.71 3.8668C8.04833 3.28967 9.47833 3.00073 11 3C12.5217 3 13.9517 3.28893 15.29 3.8668C16.6283 4.44467 17.7925 5.22823 18.7825 6.2175C19.7725 7.2075 20.5564 8.37167 21.1343 9.71C21.7122 11.0483 22.0007 12.4783 22 14C22 15.5217 21.7111 16.9517 21.1332 18.29C20.5553 19.6283 19.7718 20.7925 18.7825 21.7825C17.7925 22.7725 16.6283 23.5564 15.29 24.1343C13.9517 24.7122 12.5217 25.0007 11 25ZM11 22.8C13.4567 22.8 15.5375 21.9475 17.2425 20.2425C18.9475 18.5375 19.8 16.4567 19.8 14C19.8 11.5433 18.9475 9.4625 17.2425 7.7575C15.5375 6.0525 13.4567 5.2 11 5.2C8.54333 5.2 6.4625 6.0525 4.7575 7.7575C3.0525 9.4625 2.2 11.5433 2.2 14C2.2 16.4567 3.0525 18.5375 4.7575 20.2425C6.4625 21.9475 8.54333 22.8 11 22.8Z" fill="white"/>
</svg>
