<svg width="19" height="20" viewBox="0 0 19 20" fill="none" xmlns="http://www.w3.org/2000/svg">
<path d="M18.1883 7.21258L12.5786 1.60285C10.8769 -0.094422 8.12262 -0.094422 6.42097 1.60285L0.811236 7.21258C0.289924 7.73111 -0.00227453 8.43664 -0.00023352 9.17196V17.3878C0.00151062 18.4603 0.870907 19.3289 1.94333 19.3298H17.0562C18.1286 19.329 18.998 18.4603 18.9997 17.3878V9.17196C19.0018 8.43664 18.7096 7.73111 18.1883 7.21258ZM16.6247 16.9548H12.6664V14.4357C12.6664 12.7664 11.3132 11.4131 9.64384 11.4131H9.35569C7.68636 11.4131 6.3331 12.7664 6.3331 14.4357V16.9548H2.37476V9.17196C2.37502 9.06697 2.41651 8.96633 2.49036 8.89171L8.1001 3.28197C8.8729 2.50894 10.126 2.5088 10.8991 3.2816C10.8992 3.28171 10.8993 3.28186 10.8994 3.28197L16.5092 8.89171C16.583 8.96633 16.6245 9.06697 16.6248 9.17196V16.9548H16.6247Z" fill="white"/>
</svg>
