<svg width="24" height="24" viewBox="0 0 24 24" fill="none" xmlns="http://www.w3.org/2000/svg">
<path d="M19.05 4.90999C18.1331 3.9841 17.041 3.24996 15.8375 2.75036C14.634 2.25075 13.3431 1.99568 12.04 1.99999C6.57999 1.99999 2.12999 6.44999 2.12999 11.91C2.12999 13.66 2.58999 15.36 3.44999 16.86L2.04999 22L7.29999 20.62C8.74999 21.41 10.38 21.83 12.04 21.83C17.5 21.83 21.95 17.38 21.95 11.92C21.95 9.26999 20.92 6.77999 19.05 4.90999ZM12.04 20.15C10.56 20.15 9.10999 19.75 7.83999 19L7.53999 18.82L4.41999 19.64L5.24999 16.6L5.04999 16.29C4.22754 14.9771 3.79091 13.4593 3.78999 11.91C3.78999 7.36999 7.48999 3.66999 12.03 3.66999C14.23 3.66999 16.3 4.52999 17.85 6.08999C18.6176 6.85386 19.2259 7.76254 19.6396 8.76332C20.0533 9.76411 20.2642 10.8371 20.26 11.92C20.28 16.46 16.58 20.15 12.04 20.15ZM16.56 13.99C16.31 13.87 15.09 13.27 14.87 13.18C14.64 13.1 14.48 13.06 14.31 13.3C14.14 13.55 13.67 14.11 13.53 14.27C13.39 14.44 13.24 14.46 12.99 14.33C12.74 14.21 11.94 13.94 11 13.1C10.26 12.44 9.76999 11.63 9.61999 11.38C9.47999 11.13 9.59999 11 9.72999 10.87C9.83999 10.76 9.97999 10.58 10.1 10.44C10.22 10.3 10.27 10.19 10.35 10.03C10.43 9.85999 10.39 9.71999 10.33 9.59999C10.27 9.47999 9.76999 8.25999 9.56999 7.75999C9.36999 7.27999 9.15999 7.33999 9.00999 7.32999H8.52999C8.35999 7.32999 8.09999 7.38999 7.86999 7.63999C7.64999 7.88999 7.00999 8.48999 7.00999 9.70999C7.00999 10.93 7.89999 12.11 8.01999 12.27C8.13999 12.44 9.76999 14.94 12.25 16.01C12.84 16.27 13.3 16.42 13.66 16.53C14.25 16.72 14.79 16.69 15.22 16.63C15.7 16.56 16.69 16.03 16.89 15.45C17.1 14.87 17.1 14.38 17.03 14.27C16.96 14.16 16.81 14.11 16.56 13.99Z" fill="white"/>
</svg>
