<svg width="500" height="295" viewBox="0 0 500 295" fill="none" xmlns="http://www.w3.org/2000/svg">
<path d="M479.043 79.9479L261.079 25.375C253.762 23.5417 246.142 23.5417 238.98 25.375L20.8555 79.9479C17.0482 80.8698 17.0482 86.3542 20.8555 87.2656L128.012 114.099C188.678 96.1146 253.913 95.1927 315.949 106.172C253.147 99.1615 186.996 104.646 128.012 127.365V158.005C128.012 160.594 130.454 162.276 132.892 161.51C167.647 150.844 207.579 144.594 249.954 144.594C292.329 144.594 332.262 150.844 367.163 161.51C369.6 162.276 371.892 160.594 371.892 158.005V114.099L418.689 102.365V184.385H417.923C416.241 184.385 414.876 185.75 414.876 187.432V202.521C414.876 204.203 416.241 205.568 417.923 205.568H427.064C428.741 205.568 430.111 204.203 430.111 202.521V187.432C430.111 185.75 428.741 184.385 427.064 184.385H426.309V100.531L479.043 87.276C483.007 86.3542 483.007 80.8698 479.043 79.9583V79.9479Z" fill="#FBCC14"/>
<path d="M150.776 264.735H192.271V277.548H128L168.802 205.943H131.505V193.131H191.432L150.776 264.735Z" fill="#FBCC14"/>
<path d="M246.307 278.677C240.297 278.677 234.682 277.557 229.484 275.323C224.271 273.057 219.672 269.938 215.688 265.943C211.719 261.953 208.604 257.354 206.344 252.146C204.099 246.943 202.984 241.344 202.984 235.359C202.984 229.354 204.099 223.74 206.344 218.531C208.604 213.333 211.719 208.734 215.688 204.734C219.672 200.75 224.271 197.635 229.484 195.391C234.682 193.13 240.297 192 246.307 192C252.313 192 257.922 193.13 263.13 195.391C268.333 197.635 272.922 200.75 276.891 204.734C280.88 208.734 283.99 213.333 286.234 218.531C288.5 223.74 289.63 229.354 289.63 235.359C289.63 241.344 288.5 246.943 286.234 252.146C283.99 257.354 280.88 261.953 276.891 265.943C272.922 269.938 268.333 273.057 263.13 275.323C257.922 277.557 252.313 278.677 246.307 278.677ZM246.307 265.031C251.927 265.031 256.964 263.714 261.417 261.089C265.891 258.458 269.448 254.922 272.073 250.469C274.703 246.016 276.016 240.979 276.016 235.359C276.016 229.719 274.703 224.661 272.073 220.208C269.448 215.76 265.891 212.219 261.417 209.589C256.964 206.964 251.927 205.651 246.307 205.651C240.776 205.651 235.771 206.964 231.271 209.589C226.766 212.219 223.203 215.76 220.578 220.208C217.948 224.661 216.635 229.719 216.635 235.359C216.635 240.979 217.948 246.016 220.578 250.469C223.203 254.922 226.766 258.458 231.271 261.089C235.771 263.714 240.776 265.031 246.307 265.031Z" fill="#FBCC14"/>
<path d="M356.209 277.548L350.152 259.662H315.662L309.636 277.548H294.709L325.261 193.131H340.589L371.1 277.548H356.209ZM319.745 247.584H346.209L332.995 208.167L319.745 247.584Z" fill="#FBCC14"/>
</svg>
